<svg width="31" height="30" viewBox="0 0 31 30" fill="none" xmlns="http://www.w3.org/2000/svg">
<rect x="0.0487061" width="30" height="30" rx="5" fill="#15101C"/>
<path d="M22.6112 8.125H7.48621C7.30387 8.125 7.129 8.19743 7.00007 8.32636C6.87114 8.4553 6.79871 8.63016 6.79871 8.8125C6.79871 8.99484 6.87114 9.1697 7.00007 9.29864C7.129 9.42757 7.30387 9.5 7.48621 9.5H8.17371V21.875C8.17371 22.2397 8.31857 22.5894 8.57643 22.8473C8.8343 23.1051 9.18403 23.25 9.54871 23.25H20.5487C20.9134 23.25 21.2631 23.1051 21.521 22.8473C21.7788 22.5894 21.9237 22.2397 21.9237 21.875V9.5H22.6112C22.7935 9.5 22.9684 9.42757 23.0973 9.29864C23.2263 9.1697 23.2987 8.99484 23.2987 8.8125C23.2987 8.63016 23.2263 8.4553 23.0973 8.32636C22.9684 8.19743 22.7935 8.125 22.6112 8.125ZM20.5487 21.875H9.54871V9.5H20.5487V21.875ZM10.9237 6.0625C10.9237 5.88016 10.9961 5.7053 11.1251 5.57636C11.254 5.44743 11.4289 5.375 11.6112 5.375H18.4862C18.6685 5.375 18.8434 5.44743 18.9723 5.57636C19.1013 5.7053 19.1737 5.88016 19.1737 6.0625C19.1737 6.24484 19.1013 6.4197 18.9723 6.54864C18.8434 6.67757 18.6685 6.75 18.4862 6.75H11.6112C11.4289 6.75 11.254 6.67757 11.1251 6.54864C10.9961 6.4197 10.9237 6.24484 10.9237 6.0625Z" fill="#9E78CF"/>
</svg>
