<svg width="31" height="30" viewBox="0 0 31 30" fill="none" xmlns="http://www.w3.org/2000/svg">
<rect x="0.0487061" width="30" height="30" rx="5" fill="#15101C"/>
<path d="M23.7851 10.6739L12.7851 21.6739C12.7212 21.7378 12.6454 21.7885 12.562 21.8231C12.4785 21.8577 12.389 21.8755 12.2987 21.8755C12.2083 21.8755 12.1189 21.8577 12.0354 21.8231C11.952 21.7885 11.8761 21.7378 11.8123 21.6739L6.99979 16.8614C6.87078 16.7324 6.79831 16.5574 6.79831 16.375C6.79831 16.1926 6.87078 16.0176 6.99979 15.8886C7.12879 15.7596 7.30375 15.6871 7.48619 15.6871C7.66863 15.6871 7.84359 15.7596 7.9726 15.8886L12.2987 20.2155L22.8123 9.70109C22.9413 9.57209 23.1163 9.49962 23.2987 9.49962C23.4811 9.49962 23.6561 9.57209 23.7851 9.70109C23.9141 9.8301 23.9866 10.0051 23.9866 10.1875C23.9866 10.3699 23.9141 10.5449 23.7851 10.6739Z" fill="#9E78CF"/>
</svg>
